# xmcd
#
# Track frame offsets:
# 150
# 17711
# 39661
# 57373
# 77359
# 93879
# 113100
# 133936
# 152097
# 182958
#
# Disc length: 2748 seconds
#
#
# Revision: 0
# Processed by: cddbd v1.5.2PL0 Copyright (c) Steve Scherf et al.
# Submitted via: FreeRIP 2.945 
#
DISCID=7b0aba0a
DTITLE=Marcelo Silva and Neemias - Caminho Pro Céu
DYEAR=1900
DGENRE=Gospel
TTITLE0=Caminho Pro Céu
TTITLE1=O Rosto de Cristo
TTITLE2=Perdão
TTITLE3=Ele
TTITLE4=Derrama Senhor
TTITLE5=Aquela Mulher
TTITLE6=Feche Seus Olhos
TTITLE7=Cara Metade
TTITLE8=Corinhos Abençoados
TTITLE9=Saudade de Você
EXTD=Rouxinol and Sabiá
EXTT0=
EXTT1=
EXTT2=
EXTT3=
EXTT4=
EXTT5=
EXTT6=
EXTT7=
EXTT8=
EXTT9=
PLAYORDER=
